<svg width="899" height="1201" viewBox="0 0 899 1201" fill="none" xmlns="http://www.w3.org/2000/svg">
<path fill-rule="evenodd" clip-rule="evenodd" d="M392.162 576.35C458.51 593.067 477.815 677.841 531.826 719.844C582.913 759.572 676.142 751.76 696.652 813.14C717.13 874.422 651.803 929.655 620.894 986.395C596.434 1031.3 572.8 1074.35 535.378 1109.2C493.056 1148.6 449.5 1191.85 392.162 1199.37C331.156 1207.36 273.231 1179.38 218.799 1150.69C155.751 1117.46 79.6622 1088.49 54.9381 1021.65C30.0439 954.344 71.2223 883.231 94.8011 815.456C117.833 749.253 135.281 677.619 189.907 633.695C245.888 588.681 322.506 558.8 392.162 576.35Z" fill="#4754EB"/>
<path fill-rule="evenodd" clip-rule="evenodd" d="M298.23 738.309C341.037 742.66 389.236 743.921 418.565 775.407C448.385 807.419 443.001 856.474 448.711 899.853C455.006 947.672 477.19 998.902 453.519 1040.93C429.579 1083.42 377.516 1103.17 329.467 1111.54C286.749 1118.98 247.478 1095.25 205.575 1084.1C163.569 1072.93 111.056 1080.4 84.117 1046.28C57.1963 1012.19 78.0755 962.798 75.5439 919.428C72.9906 875.683 44.2367 827.331 69.2363 791.343C94.2779 755.295 148.858 762.244 191.614 752.342C227.412 744.051 261.675 734.594 298.23 738.309Z" fill="#8633B0"/>
<path fill-rule="evenodd" clip-rule="evenodd" d="M814.227 334.517C815.252 402.931 738.362 443.519 711.77 506.561C686.618 566.19 718.293 654.22 664.313 689.918C610.419 725.558 540.161 676.753 477.355 661.583C427.652 649.578 379.947 637.892 336.605 610.764C287.587 580.082 234.536 549.205 212.437 495.766C188.924 438.908 200.968 375.713 214.589 315.711C230.366 246.211 238.659 165.216 296.824 124.035C355.39 82.5696 434.738 103.939 506.305 109.174C576.214 114.286 649.923 112.599 706.489 153.996C764.457 196.419 813.151 262.692 814.227 334.517Z" fill="white"/>
</svg>
