<svg width="833" height="833" viewBox="0 0 833 833" fill="none" xmlns="http://www.w3.org/2000/svg">
<g opacity="0.75">
<path fill-rule="evenodd" clip-rule="evenodd" d="M126.359 319.761C143.705 243.864 108.057 149.159 166.136 95.3321C224.378 41.355 322.851 47.2278 404.653 61.8459C475.731 74.5478 522.415 134.64 584.957 170.177C651.722 208.112 757.743 207.381 782.966 276.802C808.429 346.888 711.119 400.802 694.627 472.028C677.174 547.402 733.631 637.605 685.23 698.885C635.718 761.573 539.499 779.555 455.589 774.677C375.741 770.036 311.744 716.093 244.502 673.267C178.023 630.927 91.419 599.353 67.3819 527.429C43.568 456.174 109.923 391.677 126.359 319.761Z" fill="#4754EB"/>
<path fill-rule="evenodd" clip-rule="evenodd" d="M36.3431 357.797C29.9768 308.769 15.5788 257.402 40.5878 213.4C67.4588 166.122 117.993 130.719 174.528 114.669C230.852 98.6791 291.708 107.714 346.976 126.42C400.214 144.439 455.654 171.078 478.694 217.618C500.507 261.68 470.041 310.218 461.52 357.797C454.648 396.163 457.822 436.43 433.714 468.759C409.01 501.888 368.869 521.12 327.972 536.883C283.127 554.167 235.51 574.103 188.165 563.4C139.562 552.412 102.792 517.134 75.1714 479.729C48.4761 443.578 41.9307 400.827 36.3431 357.797Z" fill="#8633B0"/>
</g>
</svg>
