<svg width="800" height="800" viewBox="0 0 800 800" fill="none" xmlns="http://www.w3.org/2000/svg">
<g opacity="0.75">
<path fill-rule="evenodd" clip-rule="evenodd" d="M2.88251 480.677C10.741 539.033 47.4194 585.781 80.717 634.228C114.949 684.035 145.145 738.274 198.806 765.744C258.259 796.178 327.059 808.651 392.077 793.617C460.744 777.739 522.878 737.641 565.217 681.019C607.997 623.805 645.344 549.582 626.074 480.677C607.341 413.696 523.862 394.564 472.167 348.302C435.014 315.055 406.54 277.192 366.121 248.049C306.149 204.809 253.215 127.659 180.096 137.718C108.165 147.614 68.3178 228.852 34.8493 293.623C5.11214 351.173 -5.77185 416.412 2.88251 480.677Z" fill="#8633B0"/>
<path fill-rule="evenodd" clip-rule="evenodd" d="M239.273 636.584C198.077 600.606 179.257 547.534 164.486 494.721C151.607 448.668 150.431 401.54 160.459 354.776C170.46 308.133 188.651 263.829 221.4 229.295C256.124 192.68 301.572 172.043 349.209 155.741C410.198 134.868 472.58 105.088 534.756 122.057C605.384 141.332 675.819 185.309 704.919 252.818C733.946 320.156 717.756 401.828 683.225 466.487C653.097 522.904 580.396 534.459 532.174 576.291C485.57 616.719 467.072 693.897 406.768 706.31C346.083 718.803 286.038 677.424 239.273 636.584Z" fill="#EB478B"/>
</g>
</svg>
