<svg width="632" height="580" viewBox="0 0 632 580" fill="none" xmlns="http://www.w3.org/2000/svg">
<path fill-rule="evenodd" clip-rule="evenodd" d="M233.94 68.7167C291.723 73.791 349.466 92.3504 391.238 132.679C430.063 170.163 431.528 228.62 451.531 278.789C473.516 333.931 525.11 382.513 514.111 440.861C502.874 500.467 451.984 550.061 396.028 573.2C344.568 594.48 289.552 559.245 233.94 556.717C182.138 554.361 127.123 584.884 82.1977 558.932C36.2769 532.405 17.215 475.893 4.68407 424.283C-7.1304 375.624 6.20258 327.487 13.9922 278.021C23.5416 217.379 10.8256 145.448 55.2501 103.173C100.338 60.2678 172 63.2772 233.94 68.7167Z" fill="#8633B0"/>
<path fill-rule="evenodd" clip-rule="evenodd" d="M403.775 412.787C371.05 422.451 340.141 429.773 306.433 435.01C258.344 442.481 207.025 474.101 164.803 449.914C122.477 425.667 103.76 368.728 105.436 319.867C106.985 274.7 147.909 243.75 173.16 206.282C193.12 176.666 208.105 144.165 237.491 123.921C268.717 102.408 305.004 88.5649 342.865 89.3697C382.976 90.2222 418.57 108.866 453.555 128.513C498.73 153.882 558.086 170.489 574.802 219.619C591.654 269.148 569.568 328.371 534.883 367.546C503.428 403.073 449.221 399.366 403.775 412.787Z" fill="#EB478B"/>
</svg>
