<svg width="680" height="748" viewBox="0 0 680 748" fill="none" xmlns="http://www.w3.org/2000/svg">
<path fill-rule="evenodd" clip-rule="evenodd" d="M103.695 254.93C107.329 189.922 101.791 111.089 151.855 70.8374C201.939 30.5692 274.767 61.0615 338.275 66.3257C392.254 70.8 445.045 74.3853 493.479 99.1545C547.042 126.547 608.444 156.388 627.732 214.356C646.893 271.938 601.395 328.423 589.603 388.039C576.659 453.476 598.321 529.983 555.357 580.261C510.745 632.468 435.851 648.715 368.057 647.299C303.166 645.943 238.733 619.451 192.689 572.684C151.162 530.503 149.09 466.055 132.976 408.52C118.579 357.117 100.711 308.312 103.695 254.93Z" fill="#4754EB"/>
<path fill-rule="evenodd" clip-rule="evenodd" d="M161.956 327.075C187.462 299.715 212.531 275.603 241.361 251.939C282.489 218.179 313.563 159.506 366.341 159.309C419.248 159.112 467.697 203.284 492.607 251.002C515.635 295.114 493.964 347.393 490.551 397.244C487.853 436.649 491.392 476.064 474.758 511.708C457.083 549.585 430.496 582.918 394.49 603.094C356.344 624.469 312.799 626.307 269.281 626.848C213.089 627.547 148.323 644.482 105.987 606.681C63.3079 568.573 51.9552 499.64 63.3058 442.935C73.5997 391.51 126.535 365.07 161.956 327.075Z" fill="#8633B0"/>
</svg>
