<svg width="840" height="1008" viewBox="0 0 840 1008" fill="none" xmlns="http://www.w3.org/2000/svg">
<path fill-rule="evenodd" clip-rule="evenodd" d="M675.701 797.663C750.353 769.179 836.125 743.581 873.801 673.325C912.106 601.894 879.273 517.18 869.003 437.195C857.683 349.024 873.223 247.083 810.943 183.747C747.958 119.694 645.33 109.76 555.275 118.145C475.212 125.6 416.057 186.875 346.239 227.017C276.247 267.258 178.617 279.405 146.468 353.186C114.341 426.916 175.099 504.718 191.06 583.146C207.16 662.251 178.487 762.253 240.294 814.202C302.204 866.238 396.725 827.426 478.021 824.337C546.085 821.752 611.953 821.986 675.701 797.663Z" fill="#4754EB"/>
<path fill-rule="evenodd" clip-rule="evenodd" d="M440.523 159.899C386.927 209.423 427.403 295.792 413.104 365.433C403.526 412.082 371.114 451.831 370.894 499.015C370.636 554.472 368.118 620.855 411.759 654.592C455.389 688.321 522.719 647.634 577.846 659.002C646.249 673.107 701.726 752.982 768.62 728.18C833.229 704.225 844.187 617.649 863.45 553.11C880.077 497.402 890.988 438.228 871.007 385.139C852.557 336.118 796.874 316.197 760.171 278.704C719.072 236.718 699.41 173.444 643.402 152.628C579.599 128.914 491.925 112.401 440.523 159.899Z" fill="#8633B0"/>
</svg>
